<svg height="512pt" viewBox="-26 0 512 512.00025" width="512pt" xmlns="http://www.w3.org/2000/svg"><path d="m452.523438 43.089844h-444.917969v461.304687h444.917969zm0 0" fill="#ff8040"/><path d="m48.160156 83.644531h363.808594v380.199219h-363.808594zm0 0" fill="#e4e4ef"/><path d="m128.03125 254.125c-5.085938-2.660156-10.871094-4.164062-17.003906-4.164062-20.304688 0-36.761719 16.457031-36.761719 36.765624 0 20.304688 16.457031 36.761719 36.761719 36.761719 6.363281 0 12.339844-1.613281 17.558594-4.449219h202.957031c5.214843 2.832032 11.195312 4.449219 17.554687 4.449219 20.308594 0 36.765625-16.457031 36.765625-36.761719 0-20.308593-16.457031-36.765624-36.765625-36.765624-6.128906 0-11.914062 1.503906-17 4.164062" fill="#e8b182"/><path d="m331.546875 239.097656v69.296875c0 49.589844-35.472656 90.890625-82.433594 99.917969-6.25 1.207031-12.71875 1.835938-19.328125 1.835938-56.195312 0-101.753906-45.558594-101.753906-101.753907v-69.296875c0-56.195312 45.554688-101.757812 101.753906-101.757812 6.609375 0 13.078125.628906 19.328125 1.832031 20.355469 3.914063 38.546875 13.886719 52.628907 27.96875 18.410156 18.421875 29.804687 43.859375 29.804687 71.957031zm0 0" fill="#e8b182"/><path d="m331.546875 239.097656v69.296875c0 49.589844-35.472656 90.890625-82.433594 99.917969-46.957031-9.027344-82.429687-50.332031-82.429687-99.917969v-69.296875c0-49.585937 35.472656-90.898437 82.429687-99.925781 20.355469 3.914063 38.546875 13.886719 52.628907 27.96875 18.410156 18.421875 29.804687 43.859375 29.804687 71.957031zm0 0" fill="#ffd0a6"/><path d="m331.546875 239.097656v15.023438c-120.46875-.148438-160.511719-49.417969-160.511719-49.417969 0 20.464844-20.464844 42.058594-43 49.417969v-15.023438c0-56.195312 45.554688-101.757812 101.753906-101.757812 6.609376 0 13.074219.628906 19.328126 1.832031 20.351562 3.914063 38.542968 13.886719 52.628906 27.96875 18.410156 18.421875 29.800781 43.859375 29.800781 71.957031zm0 0" fill="#5b5b68"/><path d="m249.113281 139.171875c-35.980469 6.921875-65.21875 32.792969-76.929687 66.816406-.78125-.824219-1.152344-1.289062-1.152344-1.289062 0 20.46875-20.464844 42.0625-43 49.421875v-15.023438c0-56.195312 45.554688-101.757812 101.753906-101.757812 6.609375 0 13.074219.628906 19.328125 1.832031zm0 0" fill="#40404c"/><path d="m452.523438 123.960938c4.199218 0 7.605468-3.402344 7.605468-7.601563v-73.269531c0-4.199219-3.40625-7.601563-7.605468-7.601563h-144.207032l-75.054687-34.785156c-2.027344-.9375-4.367188-.9375-6.394531 0l-75.054688 34.785156h-144.207031c-4.203125 0-7.605469 3.402344-7.605469 7.601563v461.304687c0 4.203125 3.402344 7.605469 7.605469 7.605469h444.917969c4.199218 0 7.605468-3.402344 7.605468-7.605469v-357.617187c0-4.199219-3.40625-7.605469-7.605468-7.605469-4.199219 0-7.601563 3.40625-7.601563 7.605469v350.015625h-429.714844v-446.097657h429.714844v65.664063c0 4.199219 3.402344 7.601563 7.601563 7.601563zm-222.457032-107.976563 42.082032 19.503906h-84.167969zm0 0"/><path d="m108.878906 471.445312h303.089844c4.203125 0 7.605469-3.402343 7.605469-7.601562v-380.199219c0-4.199219-3.402344-7.601562-7.605469-7.601562h-363.808594c-4.203125 0-7.605468 3.402343-7.605468 7.601562v380.199219c0 4.199219 3.402343 7.601562 7.605468 7.601562h30.300782c4.199218 0 7.605468-3.402343 7.605468-7.601562 0-4.203125-3.40625-7.605469-7.605468-7.605469h-22.699219v-364.988281h348.605469v364.988281h-295.488282c-4.199218 0-7.605468 3.402344-7.605468 7.605469 0 4.199219 3.40625 7.601562 7.605468 7.601562zm0 0"/><path d="m229.789062 359.074219c12.613282 0 24.46875-4.914063 33.386719-13.832031 2.972657-2.96875 2.972657-7.785157 0-10.753907-2.96875-2.96875-7.78125-2.96875-10.753906 0-6.042969 6.046875-14.082031 9.375-22.632813 9.375-8.550781 0-16.585937-3.328125-22.632812-9.375-2.96875-2.96875-7.785156-2.96875-10.75 0-2.972656 2.96875-2.972656 7.785157-.003906 10.753907 8.917968 8.917968 20.773437 13.832031 33.386718 13.832031zm0 0"/><path d="m229.789062 144.945312c17.691407 0 34.925782 4.933594 49.847657 14.261719 3.558593 2.226563 8.253906 1.148438 10.480469-2.414062 2.226562-3.5625 1.144531-8.253907-2.417969-10.480469-17.339844-10.84375-37.363281-16.578125-57.910157-16.578125-60.304687 0-109.363281 49.058594-109.363281 109.363281v4.289063c-3.078125-.667969-6.230469-1.027344-9.398437-1.027344-24.460938 0-44.363282 19.902344-44.363282 44.363281 0 24.464844 19.902344 44.367188 44.363282 44.367188 3.878906 0 7.738281-.523438 11.464844-1.519532 9.894531 50.199219 54.238281 88.179688 107.292968 88.179688 53.109375 0 97.492188-38.054688 107.324219-88.328125 3.890625 1.089844 7.925781 1.667969 11.988281 1.667969 24.464844 0 44.367188-19.902344 44.367188-44.367188 0-24.460937-19.902344-44.363281-44.367188-44.363281-3.355468 0-6.695312.394531-9.949218 1.144531v-4.40625c0-29.210937-11.375-56.675781-32.03125-77.328125-2.972657-2.972656-7.785157-2.972656-10.753907 0-2.96875 2.96875-2.96875 7.78125 0 10.75 17.78125 17.785157 27.578125 41.429688 27.578125 66.578125v7.335938c-32.660156-.652344-76.34375-5.503906-113.269531-23.316406-23.832031-11.5-33.664063-23.128907-33.734375-23.214844-2.03125-2.496094-5.417969-3.445313-8.445312-2.367188-3.035157 1.074219-5.0625 3.945313-5.0625 7.164063 0 13.472656-11.976563 29.109375-27.792969 37.832031v-3.433594c0-51.917968 42.234375-94.152344 94.152343-94.152344zm-118.761718 170.9375c-16.074219 0-29.15625-13.078124-29.15625-29.15625 0-16.078124 13.078125-29.160156 29.15625-29.160156 3.253906 0 6.398437.53125 9.398437 1.554688v4.867187c-2.894531-1.203125-6.070312-1.871093-9.398437-1.871093-13.566406 0-24.605469 11.039062-24.605469 24.609374 0 13.566407 11.039063 24.605469 24.605469 24.605469 4.203125 0 7.605468-3.402343 7.605468-7.601562s-3.402343-7.605469-7.605468-7.605469c-5.179688 0-9.398438-4.214844-9.398438-9.398438 0-5.183593 4.21875-9.402343 9.398438-9.402343 5.167968 0 9.367187 4.1875 9.398437 9.34375v21.722656c0 1.972656.058594 3.929687.160157 5.875-3.058594 1.058594-6.296876 1.617187-9.558594 1.617187zm267.230468-29.160156c0 16.078125-13.078124 29.160156-29.160156 29.160156-3.453125 0-6.878906-.625-10.097656-1.808593.097656-1.882813.148438-3.777344.148438-5.683594v-18.835937s0-1.828126 0-2.832032c0-5.183594 4.765624-9.398437 9.949218-9.398437s9.402344 4.214843 9.402344 9.398437-4.21875 9.402344-9.402344 9.402344c-4.199218 0-7.601562 3.40625-7.601562 7.605469s3.402344 7.601562 7.601562 7.601562c13.570313 0 24.609375-11.039062 24.609375-24.609375 0-13.566406-11.039062-24.605468-24.609375-24.605468-3.539062 0-6.90625.757812-9.949218 2.109374v-4.914062c3.164062-1.15625 6.496093-1.746094 9.949218-1.746094 16.082032 0 29.160156 13.082032 29.160156 29.15625zm-214.601562-47.328125c5.589844-6.257812 9.726562-13.019531 12.21875-19.84375 18.585938 14.742188 63.074219 40.539063 148.066406 42.101563v46.738281c0 51.917969-42.238281 94.152344-94.152344 94.152344-51.917968 0-94.152343-42.234375-94.152343-94.152344v-48.996094c10.46875-4.367187 20.269531-11.328125 28.019531-20zm0 0"/><path d="m183.152344 308.488281c4.199218 0 7.605468-3.40625 7.605468-7.605469v-23.320312c0-4.199219-3.40625-7.601562-7.605468-7.601562-4.199219 0-7.605469 3.402343-7.605469 7.601562v23.320312c0 4.199219 3.40625 7.605469 7.605469 7.605469zm0 0"/><path d="m276.425781 308.488281c4.203125 0 7.605469-3.40625 7.605469-7.605469v-23.320312c0-4.199219-3.402344-7.601562-7.605469-7.601562-4.199219 0-7.601562 3.402343-7.601562 7.601562v23.320312c0 4.199219 3.402343 7.605469 7.601562 7.605469zm0 0"/></svg>